<svg width="32" height="32" viewBox="0 0 32 32" fill="none" xmlns="http://www.w3.org/2000/svg">
<path fill-rule="evenodd" clip-rule="evenodd" d="M27.3399 4.65139C24.3334 1.65501 20.3279 0.00482509 16.0655 0C7.28352 0 0.130929 7.11218 0.130929 15.8552C0.130929 18.649 0.86316 21.38 2.25974 23.7829L0 32L8.44734 29.7949C10.775 31.0591 13.3935 31.725 16.0606 31.725H16.0655C24.8474 31.725 31.9951 24.6128 32 15.8697C32.0048 11.6333 30.3513 7.64777 27.3399 4.65139ZM16.0703 29.047H16.0655C13.6893 29.047 11.3569 28.4101 9.32505 27.2087L8.84012 26.924L3.82603 28.2316L5.16442 23.3679L4.84922 22.8709C3.52538 20.772 2.82224 18.3498 2.82224 15.8552C2.82709 8.58866 8.76739 2.67793 16.0752 2.67793C19.6151 2.67793 22.9368 4.05308 25.439 6.54282C27.9412 9.03257 29.3184 12.3474 29.3135 15.8649C29.3135 23.1363 23.3684 29.047 16.0703 29.047ZM23.3344 19.1749C22.9368 18.9771 20.9777 18.0169 20.614 17.8866C20.2503 17.7563 19.9836 17.6888 19.7169 18.0844C19.4502 18.4801 18.6889 19.3727 18.4561 19.6381C18.2234 19.9035 17.9906 19.9373 17.593 19.7394C17.1953 19.5416 15.9103 19.1218 14.3925 17.7708C13.2093 16.7189 12.4092 15.421 12.1764 15.0253C11.9436 14.6297 12.1521 14.4125 12.351 14.2147C12.5304 14.0362 12.7486 13.7515 12.9474 13.5199C13.1462 13.2883 13.2141 13.1242 13.345 12.8589C13.476 12.5935 13.4129 12.3619 13.3111 12.1641C13.2093 11.9662 12.414 10.0169 12.0843 9.22075C11.7594 8.44873 11.4345 8.55488 11.1871 8.54041C10.9544 8.53076 10.6877 8.52593 10.4258 8.52593C10.1591 8.52593 9.72753 8.62726 9.36384 9.02292C9.00015 9.41858 7.97211 10.3788 7.97211 12.3281C7.97211 14.2774 9.39778 16.1641 9.5966 16.4246C9.79542 16.69 12.4043 20.69 16.4001 22.4077C17.3505 22.8179 18.0924 23.0591 18.6695 23.2425C19.6248 23.5464 20.4928 23.503 21.1765 23.4017C21.9427 23.2859 23.5333 22.4415 23.863 21.5199C24.1927 20.5935 24.1927 19.8022 24.0958 19.6381C23.9988 19.4741 23.7321 19.3776 23.3344 19.1749Z" fill="white"/>
</svg>
