<svg width="60" height="60" viewBox="0 0 60 60" fill="none" xmlns="http://www.w3.org/2000/svg">
<path d="M30 60C13.434 60 0 46.566 0 30C0 13.434 13.434 0 30 0C46.566 0 60 13.434 60 30C60 46.566 46.566 60 30 60Z" fill="#25D366"/>
<path fill-rule="evenodd" clip-rule="evenodd" d="M41.3399 18.6514C38.3334 15.655 34.3279 14.0048 30.0655 14C21.2835 14 14.1309 21.1122 14.1309 29.8552C14.1309 32.649 14.8632 35.38 16.2597 37.7829L14 46L22.4473 43.7949C24.775 45.0591 27.3935 45.725 30.0606 45.725H30.0655C38.8474 45.725 45.9951 38.6128 46 29.8697C46.0048 25.6333 44.3513 21.6478 41.3399 18.6514ZM30.0703 43.047H30.0655C27.6893 43.047 25.3569 42.4101 23.325 41.2087L22.8401 40.924L17.826 42.2316L19.1644 37.3679L18.8492 36.8709C17.5254 34.772 16.8222 32.3498 16.8222 29.8552C16.8271 22.5887 22.7674 16.6779 30.0752 16.6779C33.6151 16.6779 36.9368 18.0531 39.439 20.5428C41.9412 23.0326 43.3184 26.3474 43.3135 29.8649C43.3135 37.1363 37.3684 43.047 30.0703 43.047ZM37.3344 33.1749C36.9368 32.9771 34.9777 32.0169 34.614 31.8866C34.2503 31.7563 33.9836 31.6888 33.7169 32.0844C33.4502 32.4801 32.6889 33.3727 32.4561 33.6381C32.2234 33.9035 31.9906 33.9373 31.593 33.7394C31.1953 33.5416 29.9103 33.1218 28.3925 31.7708C27.2093 30.7189 26.4092 29.421 26.1764 29.0253C25.9436 28.6297 26.1521 28.4125 26.351 28.2147C26.5304 28.0362 26.7486 27.7515 26.9474 27.5199C27.1462 27.2883 27.2141 27.1242 27.345 26.8589C27.476 26.5935 27.4129 26.3619 27.3111 26.1641C27.2093 25.9662 26.414 24.0169 26.0843 23.2207C25.7594 22.4487 25.4345 22.5549 25.1871 22.5404C24.9544 22.5308 24.6877 22.5259 24.4258 22.5259C24.1591 22.5259 23.7275 22.6273 23.3638 23.0229C23.0001 23.4186 21.9721 24.3788 21.9721 26.3281C21.9721 28.2774 23.3978 30.1641 23.5966 30.4246C23.7954 30.69 26.4043 34.69 30.4001 36.4077C31.3505 36.8179 32.0924 37.0591 32.6695 37.2425C33.6248 37.5464 34.4928 37.503 35.1765 37.4017C35.9427 37.2859 37.5333 36.4415 37.863 35.5199C38.1927 34.5935 38.1927 33.8022 38.0958 33.6381C37.9988 33.4741 37.7321 33.3776 37.3344 33.1749Z" fill="white"/>
</svg>
