<svg width="200" height="200" viewBox="0 0 200 200" fill="none" xmlns="http://www.w3.org/2000/svg">
<rect width="200" height="200" rx="100" fill="#C4D68B"/>
<path d="M139.502 68.6563L136.485 49.048C136.352 48.1858 135.915 47.3995 135.253 46.8314C134.591 46.2632 133.748 45.9507 132.876 45.9504C112.906 45.9504 102.67 36.1462 102.583 36.0622C101.898 35.3819 100.973 35 100.008 35C99.0426 35 98.1168 35.3819 97.4324 36.0622C97.3301 36.1462 87.0949 45.9504 67.1249 45.9504C66.2526 45.9507 65.4092 46.2632 64.7473 46.8314C64.0853 47.3995 63.6486 48.1858 63.516 49.048L60.4987 68.6563C59.1454 77.5636 60.562 86.6716 64.5566 94.7471C68.5513 102.823 74.931 109.476 82.8321 113.805L98.2469 122.207C98.7836 122.499 99.3852 122.653 99.9966 122.653C100.608 122.653 101.21 122.499 101.746 122.207L117.161 113.805C125.064 109.477 131.445 102.824 135.441 94.7485C139.437 86.6729 140.854 77.5644 139.502 68.6563ZM113.669 107.376L100 114.846L86.3314 107.391C79.7444 103.785 74.4246 98.2418 71.0925 91.5121C67.7603 84.7825 66.5768 77.1914 67.7021 69.7667L70.2591 53.1793C80.9242 52.9405 91.2771 49.534 100 43.3934C108.72 49.5333 119.069 52.9409 129.731 53.183L132.288 69.7667C133.414 77.1902 132.232 84.7805 128.902 91.51C125.572 98.2395 120.254 103.783 113.669 107.391V107.376Z" fill="white"/>
<path d="M112.029 65.2852L92.6946 84.6195L87.9715 79.8964C87.6346 79.5475 87.2315 79.2693 86.7858 79.0778C86.3402 78.8864 85.8608 78.7856 85.3758 78.7814C84.8908 78.7772 84.4098 78.8696 83.9609 79.0533C83.512 79.2369 83.1041 79.5082 82.7612 79.8511C82.4182 80.1941 82.1469 80.602 81.9633 81.0509C81.7796 81.4998 81.6872 81.9808 81.6914 82.4658C81.6956 82.9508 81.7964 83.4302 81.9878 83.8758C82.1793 84.3215 82.4575 84.7245 82.8064 85.0615L90.1121 92.3671C90.7971 93.0519 91.726 93.4366 92.6946 93.4366C93.6632 93.4366 94.5921 93.0519 95.2771 92.3671L117.194 70.4502C117.859 69.7613 118.228 68.8386 118.219 67.8808C118.211 66.9231 117.827 66.0069 117.15 65.3297C116.472 64.6524 115.556 64.2682 114.598 64.2599C113.641 64.2516 112.718 64.6198 112.029 65.2852Z" fill="white"/>
<path d="M66.96 140.16V137.6H82.64L71.92 160H69.072L78.576 140.16H66.96ZM107.702 145.28V160H105.142V147.68H97.6223V154.88C97.6223 156.032 97.4409 156.992 97.0783 157.76C96.7369 158.507 96.2036 159.072 95.4783 159.456C94.7529 159.819 93.8356 160 92.7263 160V157.664C93.3663 157.664 93.9103 157.461 94.3583 157.056C94.8276 156.651 95.0623 155.925 95.0623 154.88V145.28H107.702ZM113.002 153.28V151.104H122.826C122.741 150.336 122.527 149.664 122.186 149.088C121.866 148.491 121.407 148.032 120.81 147.712C120.234 147.371 119.519 147.2 118.666 147.2C117.813 147.2 117.034 147.381 116.33 147.744C115.626 148.107 115.061 148.629 114.634 149.312C114.229 149.973 114.026 150.763 114.026 151.68L113.962 152.64C113.962 153.771 114.154 154.731 114.538 155.52C114.922 156.309 115.466 156.907 116.17 157.312C116.874 157.717 117.706 157.92 118.666 157.92C119.391 157.92 120.031 157.813 120.586 157.6C121.162 157.365 121.674 157.056 122.122 156.672C122.57 156.267 122.954 155.797 123.274 155.264L125.354 156.576C124.863 157.323 124.319 157.984 123.722 158.56C123.125 159.115 122.399 159.552 121.546 159.872C120.693 160.171 119.626 160.32 118.346 160.32C117.023 160.32 115.829 159.989 114.762 159.328C113.717 158.667 112.885 157.76 112.266 156.608C111.669 155.435 111.37 154.112 111.37 152.64C111.37 152.363 111.381 152.096 111.402 151.84C111.423 151.584 111.455 151.328 111.498 151.072C111.711 149.856 112.138 148.789 112.778 147.872C113.418 146.955 114.239 146.24 115.242 145.728C116.266 145.216 117.407 144.96 118.666 144.96C120.053 144.96 121.269 145.269 122.314 145.888C123.359 146.507 124.17 147.381 124.746 148.512C125.322 149.621 125.61 150.955 125.61 152.512C125.61 152.64 125.61 152.768 125.61 152.896C125.61 153.024 125.599 153.152 125.578 153.28H113.002ZM126.879 145.28H135.519V147.68H126.879V145.28ZM129.919 145.92H132.479V160H129.919V145.92Z" fill="white"/>
</svg>
