<svg width="80" height="66" viewBox="0 0 80 66" fill="none" xmlns="http://www.w3.org/2000/svg">
<path d="M78.2532 8.08458H57.2424C57.034 8.08221 56.8317 8.0128 56.6657 7.8866L50.898 3.47311C50.5873 3.23759 50.2083 3.11013 49.8186 3.11013H43.4247L42.0982 0.239308C42.0671 0.167071 42.0152 0.105738 41.9492 0.0631298C41.8832 0.020522 41.806 -0.00142999 41.7274 7.22563e-05H5.9761C5.90721 0.000722241 5.83945 0.0176828 5.77835 0.0495688C3.96326 1.00105 2.45666 2.45082 1.43514 4.22896C0.413615 6.00711 -0.0805088 8.03995 0.0106833 10.0892C0.348504 15.9464 5.53117 18.7759 5.77835 18.8914C5.83945 18.9233 5.90721 18.9403 5.9761 18.9409H8.50563V19.7659C8.50739 19.8421 8.5302 19.9163 8.57155 19.9804C9.53848 21.5512 10.24 23.2709 10.6479 25.0703C12.1805 31.9256 8.80226 37.8323 7.26971 40.0597C7.22702 40.1292 7.20422 40.2091 7.20379 40.2906V41.1156H5.34166C4.62462 41.0999 3.91802 41.2895 3.30496 41.6621C2.6919 42.0348 2.1979 42.575 1.88106 43.2192C1.73287 43.5352 1.63288 43.8717 1.58443 44.2174C1.46651 45.0726 1.63454 45.9427 2.06233 46.6923C2.40598 47.255 2.89139 47.7174 3.46986 48.033C4.04833 48.3487 4.69952 48.5065 5.35814 48.4907H22.2574C22.889 48.4789 23.5056 48.6844 24.0041 49.0729C24.5027 49.4614 24.853 50.0093 24.9967 50.6253C25.1404 51.2412 25.0687 51.8878 24.7936 52.4572C24.5185 53.0266 24.0566 53.4843 23.4851 53.7538C23.1097 53.9213 22.701 54.0003 22.2904 53.9848H10.0876C9.41204 53.9649 8.74378 54.1294 8.15448 54.4608C7.56517 54.7921 7.07703 55.2778 6.74238 55.8657C6.43614 56.4444 6.28297 57.0919 6.29744 57.7466C6.31008 58.2312 6.41914 58.7085 6.61821 59.1505C6.81729 59.5924 7.1024 59.9902 7.45686 60.3205C7.81132 60.6508 8.22801 60.907 8.68256 61.0741C9.1371 61.2413 9.62037 61.316 10.1041 61.2939H32.1284V61.8548C32.1284 62.73 32.4756 63.5693 33.0937 64.1882C33.7118 64.807 34.5501 65.1546 35.4242 65.1546H37.0721C37.1813 65.1546 37.2861 65.1112 37.3634 65.0338C37.4406 64.9565 37.484 64.8516 37.484 64.7422V63.3398H40.1125V62.5148H37.4593V59.512H40.0877V58.687H37.4593V57.3424C37.4593 57.233 37.4159 57.1281 37.3387 57.0507C37.2614 56.9733 37.1566 56.9299 37.0474 56.9299H35.3994C34.5253 56.9299 33.687 57.2775 33.069 57.8964C32.4509 58.5152 32.1036 59.3545 32.1036 60.2297V60.4854H10.1041C9.53668 60.5039 8.97598 60.3581 8.48929 60.0654C8.0026 59.7728 7.6106 59.3457 7.36034 58.8355C7.21602 58.4956 7.13504 58.1322 7.12139 57.7631C7.10357 57.3695 7.16828 56.9765 7.31138 56.6094C7.45447 56.2424 7.67277 55.9094 7.9522 55.632C8.23164 55.3545 8.56603 55.1388 8.93382 54.9986C9.30161 54.8584 9.69465 54.7969 10.0876 54.818H22.2904C22.8273 54.8326 23.3603 54.7225 23.8476 54.4963C24.4374 54.2155 24.9395 53.779 25.3 53.2338C25.6605 52.6887 25.8658 52.0554 25.8937 51.4022C25.9217 50.749 25.7713 50.1005 25.4587 49.5264C25.1461 48.9524 24.6831 48.4745 24.1195 48.1442C23.5546 47.8172 22.9097 47.6543 22.2574 47.6739H5.3499C4.83532 47.6861 4.32666 47.562 3.87528 47.3143C3.42391 47.0666 3.04581 46.7041 2.77916 46.2633C2.43876 45.672 2.30264 44.9848 2.39191 44.3082C2.4348 44.0434 2.51238 43.7854 2.62261 43.5409C2.87112 43.0347 3.25925 42.6102 3.74111 42.3178C4.22296 42.0254 4.77838 41.8773 5.34166 41.891H7.20379V42.716C7.20379 42.8254 7.24719 42.9303 7.32445 43.0077C7.40171 43.085 7.5065 43.1285 7.61577 43.1285H24.0948C24.2041 43.1285 24.3089 43.085 24.3861 43.0077C24.4634 42.9303 24.5068 42.8254 24.5068 42.716V41.4621C24.5063 41.3785 24.4809 41.2971 24.4339 41.228C24.387 41.159 24.3206 41.1055 24.2431 41.0743L20.2882 39.6224C18.838 31.6534 19.4642 25.6725 21.8619 24.7156C22.4406 24.5125 23.0712 24.5125 23.6499 24.7156C23.7274 24.7414 23.811 24.7426 23.8892 24.719C23.9673 24.6953 24.0363 24.648 24.0866 24.5836C24.1385 24.5212 24.1709 24.4449 24.1797 24.3642C24.1885 24.2835 24.1733 24.202 24.136 24.1299C23.88 23.6537 23.7212 23.1313 23.6689 22.5931C23.6165 22.0549 23.6717 21.5117 23.8312 20.9951C23.9708 20.5864 24.1829 20.2063 24.4574 19.8731C24.5161 19.7977 24.548 19.7048 24.548 19.6091V18.9079H37.7312V21.2178H35.1193C35.0107 21.2199 34.9071 21.264 34.8303 21.3409C34.7535 21.4178 34.7094 21.5215 34.7073 21.6303V23.8576C34.7094 23.9664 34.7535 24.0701 34.8303 24.147C34.9071 24.2239 35.0107 24.268 35.1193 24.2701H36.6354V44.8609C36.6367 44.9174 36.6498 44.9731 36.6739 45.0242C36.6981 45.0754 36.7326 45.1209 36.7755 45.1578H35.1275C35.0189 45.16 34.9154 45.2041 34.8386 45.281C34.7618 45.3579 34.7177 45.4616 34.7156 45.5703V47.7977C34.7177 47.9064 34.7618 48.0101 34.8386 48.087C34.9154 48.1639 35.0189 48.208 35.1275 48.2102H43.1693C43.2779 48.208 43.3815 48.1639 43.4583 48.087C43.5351 48.0101 43.5792 47.9064 43.5813 47.7977V45.5703C43.5792 45.4616 43.5351 45.3579 43.4583 45.281C43.3815 45.2041 43.2779 45.16 43.1693 45.1578H41.9664C42.0081 45.1205 42.0414 45.0747 42.0641 45.0235C42.0868 44.9723 42.0984 44.9169 42.0982 44.8609V24.2949H43.1611C43.2697 24.2927 43.3733 24.2486 43.4501 24.1717C43.5269 24.0948 43.5709 23.9911 43.5731 23.8824V21.655C43.5709 21.5463 43.5269 21.4426 43.4501 21.3657C43.3733 21.2888 43.2697 21.2447 43.1611 21.2425H40.4997V18.9327H41.6697C41.7405 18.9316 41.8099 18.9129 41.8718 18.8783C41.9336 18.8438 41.9859 18.7944 42.024 18.7347L43.3753 16.5486H49.7939C50.1836 16.5486 50.5626 16.4211 50.8733 16.1856L56.6409 11.7721C56.807 11.6459 57.0092 11.5765 57.2177 11.5741H78.2532C78.7165 11.5741 79.1608 11.3899 79.4884 11.0619C79.816 10.7339 80 10.2891 80 9.82523C80 9.36139 79.816 8.91656 79.4884 8.58857C79.1608 8.26059 78.7165 8.07633 78.2532 8.07633V8.08458ZM32.9358 60.1884C32.9358 59.5321 33.1963 58.9026 33.6598 58.4385C34.1234 57.9743 34.7521 57.7136 35.4077 57.7136H36.6189V64.2225H35.4242C34.7686 64.2225 34.1399 63.9617 33.6763 63.4976C33.2127 63.0335 32.9523 62.404 32.9523 61.7476L32.9358 60.1884ZM42.7491 47.3935H35.5313V45.9911H42.7491V47.3935ZM8.02774 18.116V15.7649C8.02667 15.6825 8.00099 15.6023 7.95399 15.5347C7.907 15.467 7.84085 15.415 7.76408 15.3854C4.41059 14.082 2.40015 10.6502 3.28177 7.72986C4.1634 4.80953 7.57457 3.83609 7.72288 3.80309C7.81136 3.77925 7.88937 3.72656 7.94458 3.65335C7.9998 3.58014 8.02906 3.49059 8.02774 3.39887V0.825023H36.3635V18.149L8.02774 18.116ZM37.1874 0.792024H41.3072V18.116H37.1874V0.792024ZM42.1311 2.25219L42.7409 3.58036V16.0454L42.0899 17.0848L42.1311 2.25219ZM0.867594 10.048C0.781433 8.17494 1.22524 6.31562 2.14794 4.68399C3.07063 3.05235 4.43472 1.71472 6.08321 0.825023H7.20379V3.10189C6.21505 3.43187 3.35593 4.61979 2.49078 7.49062C1.50204 10.7904 3.56192 14.5027 7.20379 16.0454V18.116H6.08321C5.41581 17.6953 1.16422 15.1049 0.867594 10.048ZM11.4471 24.8476C11.0295 22.9981 10.3143 21.2289 9.32959 19.6091V18.9409H13.5729L12.0074 39.5152H8.57979C10.2936 36.7186 12.8726 31.1832 11.4471 24.8476ZM23.724 41.7508V42.3448H8.06894V40.3814H12.37C12.4743 40.3837 12.5755 40.3455 12.6523 40.2747C12.7291 40.204 12.7756 40.1062 12.7819 40.0019L14.4299 18.9822H15.8141L14.3969 39.7379C14.3931 39.8495 14.4314 39.9584 14.504 40.0432C14.5809 40.1267 14.6873 40.177 14.8006 40.1834L19.8844 40.3401L23.724 41.7508ZM23.724 19.4771C23.4339 19.8596 23.2058 20.2856 23.0484 20.7393C22.739 21.7207 22.7651 22.7773 23.1226 23.7421C22.6073 23.6733 22.083 23.7357 21.5982 23.9236C18.7721 25.0621 17.9728 31.0017 19.4724 39.4739L15.2538 39.3419L16.6051 18.9162H23.724V19.4771ZM41.2742 44.4236H37.4593V24.2949H41.2742V44.4236ZM42.7491 23.4699H35.5313V22.0675H42.7491V23.4699ZM39.6758 21.2425H38.5634V18.9327H39.6758V21.2425ZM50.3871 15.5256C50.2185 15.653 50.0134 15.7224 49.8021 15.7236H43.5731V3.93508H49.8104C50.0216 3.93627 50.2268 4.00571 50.3954 4.13307L53.6912 6.60792V12.9765L50.3871 15.5256ZM78.2532 10.7574H57.2424C56.8515 10.7579 56.4718 10.8885 56.1631 11.1287L54.5151 12.3908V7.27613L56.1631 8.53831C56.4718 8.77843 56.8515 8.90902 57.2424 8.90953H78.2532C78.498 8.90953 78.7327 9.00688 78.9058 9.18015C79.0788 9.35342 79.176 9.58843 79.176 9.83348C79.176 10.0785 79.0788 10.3135 78.9058 10.4868C78.7327 10.6601 78.498 10.7574 78.2532 10.7574Z" fill="#FF003D"/>
<path d="M8.1843 7.5813H4.44356V8.40604H8.1843V7.5813Z" fill="#FF003D"/>
<path d="M8.18429 4.79297H6.03378V5.61771H8.18429V4.79297Z" fill="#FF003D"/>
<path d="M8.1843 10.5345H4.44356V11.3593H8.1843V10.5345Z" fill="#FF003D"/>
<path d="M8.18429 13.3229H6.03378V14.1476H8.18429V13.3229Z" fill="#FF003D"/>
<path d="M34.8556 8.08447H9.98876C9.8795 8.08447 9.77471 8.12793 9.69745 8.20528C9.62019 8.28264 9.57678 8.38755 9.57678 8.49695V13.9251C9.57678 14.0345 9.62019 14.1394 9.69745 14.2168C9.77471 14.2941 9.8795 14.3376 9.98876 14.3376H34.8556C34.9649 14.3376 35.0697 14.2941 35.147 14.2168C35.2242 14.1394 35.2676 14.0345 35.2676 13.9251V8.49695C35.2676 8.38755 35.2242 8.28264 35.147 8.20528C35.0697 8.12793 34.9649 8.08447 34.8556 8.08447ZM34.4437 13.5126H10.4007V8.90942H34.4437V13.5126Z" fill="#FF003D"/>
<path d="M34.8556 4.25684H9.98876C9.8795 4.25684 9.77471 4.30028 9.69745 4.37762C9.62019 4.45495 9.57678 4.55984 9.57678 4.66921V6.4424C9.57678 6.55177 9.62019 6.65666 9.69745 6.73399C9.77471 6.81133 9.8795 6.85477 9.98876 6.85477H34.8556C34.9649 6.85477 35.0697 6.81133 35.147 6.73399C35.2242 6.65666 35.2676 6.55177 35.2676 6.4424V4.66921C35.2676 4.55984 35.2242 4.45495 35.147 4.37762C35.0697 4.30028 34.9649 4.25684 34.8556 4.25684ZM34.4437 6.03003H10.4007V5.08158H34.4437V6.03003Z" fill="#FF003D"/>
</svg>
