<svg width="80" height="82" viewBox="0 0 80 82" fill="none" xmlns="http://www.w3.org/2000/svg">
<path d="M16.9469 81.4498C16.4129 81.4498 15.8898 81.186 15.5806 80.7039L0.257011 56.83C-0.166723 56.1642 -0.058592 55.2951 0.52296 54.7611C3.67069 51.8663 6.78165 48.9801 9.86669 46.1135C16.9945 39.4916 23.7288 33.2372 30.781 27.0131C37.9974 20.6441 45.4473 14.381 52.6508 8.32554C55.8115 5.67072 58.9592 3.0267 62.0724 0.384857C62.6582 -0.112381 63.5187 -0.129637 64.1197 0.34382C80.1999 12.9564 80.829 13.4493 79.5881 23.4308C79.4865 24.2415 78.799 24.8533 77.9796 24.8533H72.5792L73.7163 30.8483C73.8071 31.3261 73.6796 31.8125 73.3748 32.1843C73.0656 32.5562 72.6095 32.7724 72.1252 32.7724H65.7778V38.763C65.7778 39.5348 65.233 40.2007 64.4742 40.352L59.0652 41.4416L58.6047 46.7123C58.5657 47.1469 58.3582 47.549 58.021 47.8257C57.6859 48.1046 57.2535 48.2278 56.8168 48.1889L51.2693 47.6052L52.4973 56.5533C52.5686 57.083 52.3762 57.6105 51.9849 57.9715C51.5893 58.3325 51.0423 58.4752 50.5234 58.3542L44.8247 57.0224L44.295 63.3006C44.228 64.1394 43.5254 64.7858 42.6801 64.7858H36.817C36.8127 64.8485 36.8083 64.9156 36.804 64.9761C36.7132 66.2321 36.6268 67.4536 36.5597 68.6254C36.5273 69.1507 36.2441 69.6263 35.8009 69.9052L17.7901 81.1969C17.5371 81.3698 17.2409 81.4498 16.9469 81.4498ZM3.72471 56.2247L17.4442 77.6016L33.3904 67.605C33.4488 66.6775 33.5201 65.7263 33.5871 64.7534C33.8206 61.4543 34.0671 58.0407 34.0519 54.6011C34.0454 53.2326 33.4011 51.5117 32.4802 50.4178C30.1345 47.6333 27.5489 44.9417 25.0476 42.3366C24.0574 41.3011 23.0673 40.272 22.0858 39.23C18.791 42.2545 15.4769 45.3287 12.0805 48.4872C9.31328 51.0556 6.53303 53.6347 3.72471 56.2247ZM37.0548 61.5495H41.2056L41.7699 54.8843C41.8132 54.4152 42.051 53.985 42.4358 53.7104C42.8163 53.4358 43.2941 53.3321 43.7546 53.4445L48.9799 54.6638L47.7887 46.0054C47.7217 45.5103 47.8838 45.0152 48.2297 44.6563C48.5777 44.2975 49.075 44.1288 49.5636 44.1678L55.5304 44.7926L55.952 39.9564C56.0104 39.2386 56.5379 38.6506 57.247 38.5079L62.5436 37.4377V31.1509C62.5436 30.2559 63.27 29.5295 64.1651 29.5295H70.173L69.0337 23.5302C68.9451 23.0568 69.0726 22.566 69.3796 22.1942C69.6866 21.8223 70.1449 21.6083 70.627 21.6083H76.5484C77.3137 14.9886 76.4901 14.1692 63.1662 3.71203C60.3774 6.07283 57.5648 8.43582 54.7435 10.8074C47.553 16.8499 40.116 23.0978 32.9299 29.443C30.0783 31.9616 27.2765 34.4868 24.4768 37.04C25.4367 38.0626 26.4139 39.0743 27.3868 40.0861C29.927 42.7301 32.5516 45.4627 34.9642 48.3273C36.3738 50.0071 37.2905 52.463 37.2948 54.5881C37.3013 56.9489 37.1954 59.2708 37.0548 61.5495Z" fill="#FF7B7B"/>
<path d="M18.1079 72.2207C17.9501 72.2207 17.7901 72.1947 17.6323 72.1493C17.2108 72.0175 16.8605 71.7234 16.6594 71.33L9.62461 57.3879C9.25925 56.6636 9.48842 55.7794 10.1564 55.3189L17.0335 50.6103C17.414 50.3509 17.8701 50.2752 18.2766 50.3595C18.99 50.2103 19.7402 50.5563 20.0666 51.2416L27.0495 65.6982C27.4214 66.47 27.1295 67.3996 26.3772 67.8169L18.8927 72.0088C18.6549 72.1515 18.3825 72.2207 18.1079 72.2207ZM13.1615 57.1933L18.7911 68.3574L23.4673 65.7372L17.8052 54.011L13.1615 57.1933Z" fill="#FF7B7B"/>
</svg>
