<svg width="80" height="80" viewBox="0 0 80 80" fill="none" xmlns="http://www.w3.org/2000/svg">
<path d="M34.5945 50.5755H66.3232C69.104 50.5755 71.3677 48.3128 71.3677 45.532V31.1866H77.6483C78.572 31.1866 79.3888 30.6031 79.7775 29.6656C80.1978 28.653 80.0098 27.5018 79.3137 26.8056L53.7688 1.07598C52.3765 -0.314518 50.1523 -0.356018 48.8035 0.988982L23.2693 26.8493C22.5752 27.5455 22.3852 28.6788 22.7967 29.6716C23.1843 30.6071 24.0022 31.1866 24.9318 31.1866H29.5492V45.532C29.549 48.3128 31.8127 50.5755 34.5945 50.5755ZM54.6835 47.5375H47.595V35.9493C47.595 35.6705 47.8225 35.443 48.1013 35.443H54.1773C54.4562 35.443 54.6837 35.6705 54.6837 35.9493L54.6835 47.5375ZM68.3297 45.532C68.3297 46.6376 67.4288 47.5375 66.3232 47.5375H57.7215V35.9493C57.7215 33.9952 56.1313 32.405 54.1772 32.405H48.1012C46.147 32.405 44.5568 33.9952 44.5568 35.9493V47.5375H34.5943C33.4877 47.5375 32.5868 46.6375 32.5868 45.532V30.1345L51.2083 11.3528L68.643 28.7875C68.459 29.0387 68.3295 29.3323 68.3295 29.6676V45.532H68.3297ZM50.9573 3.13098C51.1283 2.96282 51.44 3.04598 51.618 3.21998L76.3667 28.1486H72.3002L53.3563 9.20481C52.2172 8.06748 50.3628 8.06748 49.2227 9.20481L30.2788 28.1486H26.2558L50.9573 3.13098Z" fill="#95CCC8"/>
<path d="M1.9245 0C0.863333 0 0 0.862333 0 1.9245V78.0777C0 79.1377 0.863333 80 1.9245 80H15.2908C16.352 80 17.2153 79.1377 17.2153 78.0775V1.9245C17.2153 0.862333 16.352 0 15.2908 0H1.9245ZM3.038 76.962V3.038H14.1772V10.1267H9.62033C8.78167 10.1267 8.10133 10.807 8.10133 11.6457C8.10133 12.4843 8.78167 13.1647 9.62033 13.1647H14.1773V18.228H9.62033C8.78167 18.228 8.10133 18.9083 8.10133 19.747C8.10133 20.5857 8.78167 21.266 9.62033 21.266H14.1773V26.3293H9.62033C8.78167 26.3293 8.10133 27.0097 8.10133 27.8483C8.10133 28.687 8.78167 29.3673 9.62033 29.3673H14.1773V34.4307H9.62033C8.78167 34.4307 8.10133 35.111 8.10133 35.9497C8.10133 36.7883 8.78167 37.4687 9.62033 37.4687H14.1773V42.532H9.62033C8.78167 42.532 8.10133 43.2123 8.10133 44.051C8.10133 44.8897 8.78167 45.57 9.62033 45.57H14.1773V50.6333H9.62033C8.78167 50.6333 8.10133 51.3137 8.10133 52.1523C8.10133 52.991 8.78167 53.6713 9.62033 53.6713H14.1773V58.7347H9.62033C8.78167 58.7347 8.10133 59.415 8.10133 60.2537C8.10133 61.0923 8.78167 61.7727 9.62033 61.7727H14.1773V66.836H9.62033C8.78167 66.836 8.10133 67.5163 8.10133 68.355C8.10133 69.1937 8.78167 69.874 9.62033 69.874H14.1773V76.9627H3.038V76.962Z" fill="#95CCC8"/>
<path d="M77.8738 64.8101H37.8313C37.3962 64.8101 25.4807 70.5043 25.4807 70.5043C24.7548 70.8663 24.3038 71.5941 24.3038 72.407C24.3038 73.2178 24.7548 73.9458 25.4797 74.3076C25.4797 74.3076 37.3972 79.9998 37.8313 79.9998H77.8738C79.0457 79.9998 80 79.0465 80 77.8736V66.9383C80 65.7655 79.0457 64.8101 77.8738 64.8101ZM28.4692 72.407L35.7042 68.7875V76.0245L28.4692 72.407ZM38.7422 67.8481H69.5273V76.9621H38.7422V67.8481ZM76.962 76.962H72.5652V67.848H76.962V76.962Z" fill="#95CCC8"/>
</svg>
