<svg width="80" height="80" viewBox="0 0 80 80" fill="none" xmlns="http://www.w3.org/2000/svg">
<path d="M3.33333 80H76.6667V23.3333H80V0H0V23.3333H3.33333V80ZM73.3333 76.6667H6.66667V23.3333H73.3333V76.6667ZM3.33333 3.33333H76.6667V20H3.33333V3.33333Z" fill="#F6C361"/>
<path d="M23.3334 43.3333H56.6667C60.3434 43.3333 63.3334 40.3433 63.3334 36.6667C63.3334 32.99 60.3434 30 56.6667 30H23.3334C19.6567 30 16.6667 32.99 16.6667 36.6667C16.6667 40.3433 19.6567 43.3333 23.3334 43.3333ZM23.3334 33.3333H56.6667C58.505 33.3333 60 34.8283 60 36.6667C60 38.505 58.505 40 56.6667 40H23.3334C21.495 40 20 38.505 20 36.6667C20 34.8283 21.495 33.3333 23.3334 33.3333Z" fill="#F6C361"/>
</svg>
