<svg width="80" height="88" viewBox="0 0 80 88" fill="none" xmlns="http://www.w3.org/2000/svg">
<path d="M79.5018 33.6563L76.4846 14.048C76.352 13.1858 75.9152 12.3995 75.2533 11.8314C74.5914 11.2632 73.7479 10.9507 72.8756 10.9504C52.9057 10.9504 42.6705 1.14623 42.5828 1.06221C41.8984 0.381872 40.9726 0 40.0076 0C39.0426 0 38.1168 0.381872 37.4324 1.06221C37.3301 1.14623 27.0949 10.9504 7.12494 10.9504C6.25261 10.9507 5.4092 11.2632 4.74726 11.8314C4.08532 12.3995 3.64855 13.1858 3.51596 14.048L0.498732 33.6563C-0.854575 42.5636 0.561992 51.6716 4.55663 59.7471C8.55127 67.8226 14.931 74.4756 22.8321 78.8051L38.2469 87.2066C38.7836 87.4994 39.3852 87.6529 39.9966 87.6529C40.608 87.6529 41.2096 87.4994 41.7463 87.2066L57.1612 78.8051C65.0636 74.4766 71.4448 67.8241 75.4408 59.7485C79.4368 51.6729 80.8545 42.5644 79.5018 33.6563ZM53.6691 72.3761L40.0003 79.8461L26.3314 72.3907C19.7444 68.7849 14.4246 63.2418 11.0925 56.5121C7.76033 49.7825 6.57677 42.1914 7.70209 34.7667L10.2591 18.1793C20.9242 17.9405 31.2771 14.534 40.0003 8.39341C48.72 14.5333 59.0688 17.9409 69.7305 18.183L72.2875 34.7667C73.4138 42.1902 72.2319 49.7805 68.9018 56.51C65.5716 63.2395 60.2541 68.7833 53.6691 72.3907V72.3761Z" fill="#71CC6F"/>
<path d="M52.029 30.2849L32.6946 49.6193L27.9715 44.8962C27.6346 44.5473 27.2315 44.269 26.7858 44.0776C26.3402 43.8861 25.8609 43.7854 25.3758 43.7811C24.8908 43.7769 24.4098 43.8694 23.9609 44.053C23.512 44.2367 23.1041 44.5079 22.7612 44.8509C22.4182 45.1939 22.147 45.6017 21.9633 46.0506C21.7796 46.4995 21.6872 46.9805 21.6914 47.4656C21.6956 47.9506 21.7964 48.4299 21.9878 48.8756C22.1793 49.3212 22.4576 49.7243 22.8064 50.0613L30.1121 57.3669C30.7971 58.0517 31.726 58.4364 32.6946 58.4364C33.6632 58.4364 34.5922 58.0517 35.2772 57.3669L57.1941 35.45C57.8594 34.7611 58.2276 33.8384 58.2193 32.8806C58.211 31.9228 57.8268 31.0067 57.1496 30.3294C56.4723 29.6521 55.5561 29.268 54.5984 29.2597C53.6406 29.2513 52.7179 29.6195 52.029 30.2849Z" fill="#71CC6F"/>
</svg>
