<svg width="82" height="50" viewBox="0 0 82 50" fill="none" xmlns="http://www.w3.org/2000/svg">
<path d="M63.0787 40.9992H60.1043C59.691 40.9846 59.3003 40.8065 59.018 40.5042C58.7357 40.2018 58.585 39.7998 58.5988 39.3864V25.0123C58.585 24.5989 58.7357 24.1969 59.018 23.8945C59.3003 23.5922 59.691 23.4141 60.1043 23.3995H80.4095C80.4903 23.4024 80.5698 23.4213 80.6433 23.4551C80.7168 23.4889 80.7828 23.537 80.8376 23.5965C80.8924 23.6561 80.9348 23.7259 80.9624 23.8019C80.9899 23.878 81.0022 23.9587 80.9983 24.0395V37.7992C81.0255 38.6194 80.7263 39.4169 80.1663 40.0168C79.6063 40.6167 78.8313 40.97 78.0112 40.9992H73.5313" stroke="#E756FF" stroke-width="2" stroke-miterlimit="10"/>
<path d="M13.7997 1H55.3988C56.2475 1 57.0614 1.33714 57.6615 1.93724C58.2616 2.53734 58.5988 3.35126 58.5988 4.19993V28.1994H10.5998V4.19993C10.5998 3.35126 10.9369 2.53734 11.537 1.93724C12.1371 1.33714 12.951 1 13.7997 1Z" stroke="#E756FF" stroke-width="2" stroke-miterlimit="10"/>
<path d="M1 13.7997H24.9995" stroke="#E756FF" stroke-width="2" stroke-linecap="round" stroke-linejoin="round"/>
<path d="M2.59998 18.5996H26.5995" stroke="#E756FF" stroke-width="2" stroke-linecap="round" stroke-linejoin="round"/>
<path d="M7.39987 23.3995H32.9993" stroke="#E756FF" stroke-width="2" stroke-linecap="round" stroke-linejoin="round"/>
<path d="M10.5998 34.5992H15.3997" stroke="#E756FF" stroke-width="2" stroke-linecap="round" stroke-linejoin="round"/>
<path d="M58.5988 34.5992H44.1991" stroke="#E756FF" stroke-width="2" stroke-linecap="round" stroke-linejoin="round"/>
<path d="M63.3987 28.1995H64.9986" stroke="#E756FF" stroke-width="2" stroke-linecap="round" stroke-linejoin="round"/>
<path d="M68.9986 48.999C72.0913 48.999 74.5984 46.4918 74.5984 43.3991C74.5984 40.3063 72.0913 37.7992 68.9986 37.7992C65.9058 37.7992 63.3987 40.3063 63.3987 43.3991C63.3987 46.4918 65.9058 48.999 68.9986 48.999Z" stroke="#E756FF" stroke-width="2" stroke-miterlimit="10"/>
<path d="M80.9695 22.9003C80.9914 22.9576 80.9987 23.0194 80.9907 23.0802C80.9826 23.1411 80.9595 23.1989 80.9234 23.2485C80.8873 23.2981 80.8394 23.3379 80.784 23.3643C80.7286 23.3906 80.6675 23.4027 80.6063 23.3995H59.1667C59.0158 23.3986 58.8713 23.3381 58.7649 23.231C58.6585 23.124 58.5988 22.9792 58.5988 22.8283V12.7741C58.5992 12.6216 58.66 12.4755 58.768 12.3678C58.876 12.2602 59.0223 12.1997 59.1747 12.1997H75.6352C75.8458 12.1998 76.0518 12.2613 76.228 12.3767C76.4041 12.4921 76.5429 12.6563 76.6272 12.8493L80.9695 22.9003Z" stroke="#E756FF" stroke-width="2" stroke-miterlimit="10"/>
<path d="M22.5995 48.999C25.6923 48.999 28.1994 46.4918 28.1994 43.3991C28.1994 40.3063 25.6923 37.7992 22.5995 37.7992C19.5068 37.7992 16.9997 40.3063 16.9997 43.3991C16.9997 46.4918 19.5068 48.999 22.5995 48.999Z" stroke="#E756FF" stroke-width="2" stroke-miterlimit="10"/>
<path d="M16.9997 40.9992H13.7997C12.951 40.9992 12.1371 40.6621 11.537 40.062C10.9369 39.4618 10.5998 38.6479 10.5998 37.7993V28.1995H58.5988V40.9992H28.1994" stroke="#E756FF" stroke-width="2" stroke-miterlimit="10"/>
<path d="M74.5984 34.5992H80.9983" stroke="#E756FF" stroke-width="2" stroke-linecap="round" stroke-linejoin="round"/>
</svg>
