<svg width="40" height="40" viewBox="0 0 40 40" fill="none" xmlns="http://www.w3.org/2000/svg">
<path d="M20 40C31.0457 40 40 31.0457 40 20C40 8.9543 31.0457 0 20 0C8.9543 0 0 8.9543 0 20C0 31.0457 8.9543 40 20 40Z" fill="#E0E0D1"/>
<g opacity="0.2">
<path d="M12.1782 23.4162C12.0282 22.875 11.535 22.5 10.9738 22.5H7.75441C7.37941 22.5 7.02379 22.6688 6.78629 22.9594C6.54879 23.25 6.45441 23.6319 6.52941 24C7.09879 26.7931 8.49941 29.3056 10.5794 31.2656C10.8132 31.4856 11.12 31.6056 11.4363 31.6056C11.4969 31.6056 11.5575 31.6013 11.6182 31.5925C11.9963 31.5369 12.3282 31.3119 12.5188 30.9806L14.1438 28.1663C14.415 27.6963 14.3519 27.1044 13.9875 26.7019C13.1407 25.7662 12.5144 24.63 12.1782 23.4162Z" fill="#231F20"/>
<path d="M23.0644 29.7852C22.8382 29.3927 22.4219 29.1602 21.9819 29.1602C21.8932 29.1602 21.8038 29.1695 21.715 29.1889C21.1494 29.3127 20.5719 29.3752 20 29.3752C19.2 29.3752 18.41 29.2577 17.6507 29.027C17.53 28.9902 17.4075 28.9727 17.2869 28.9727C16.8494 28.9727 16.4319 29.2033 16.2044 29.5977L14.6088 32.3614C14.4244 32.6808 14.3907 33.0645 14.5157 33.4114C14.6407 33.7583 14.9125 34.0314 15.2582 34.1589C16.77 34.717 18.365 35.0002 20 35.0002C21.3525 35.0002 22.6869 34.8045 23.9663 34.4189C24.3319 34.3089 24.6269 34.0377 24.7675 33.6827C24.9082 33.3277 24.8788 32.9277 24.6882 32.597L23.0644 29.7852Z" fill="#231F20"/>
<path d="M27.8226 19.0805C27.9713 19.6236 28.4651 19.9998 29.0282 19.9998H32.2476C32.6226 19.9998 32.9776 19.8317 33.2151 19.5411C33.4526 19.2511 33.5469 18.8698 33.4726 18.5023C32.8576 15.458 31.2007 12.6842 28.8076 10.6917C28.5813 10.503 28.2976 10.4023 28.0076 10.4023C27.9344 10.4023 27.8613 10.4086 27.7882 10.4217C27.4251 10.4861 27.1094 10.708 26.9251 11.0273L25.3276 13.7948C25.0369 14.298 25.1319 14.9355 25.5563 15.333C26.6457 16.3511 27.4294 17.6473 27.8226 19.0805Z" fill="#231F20"/>
<path d="M23.9663 8.08125C22.6869 7.69563 21.3525 7.5 20 7.5C18.365 7.5 16.77 7.78312 15.2582 8.34125C14.9125 8.46875 14.6407 8.7425 14.5157 9.08938C14.3907 9.43563 14.4244 9.82 14.6088 10.1394L16.2044 12.9031C16.4319 13.2975 16.8494 13.5281 17.2869 13.5281C17.4082 13.5281 17.53 13.5106 17.6507 13.4738C18.41 13.2425 19.2 13.125 20 13.125C20.5719 13.125 21.1494 13.1875 21.715 13.3113C21.8038 13.3306 21.8938 13.34 21.9819 13.34C22.4219 13.34 22.8375 13.1075 23.0644 12.715L24.6882 9.90313C24.8788 9.5725 24.9082 9.1725 24.7675 8.81813C24.6269 8.46313 24.3319 8.19188 23.9663 8.08125Z" fill="#231F20"/>
<path d="M32.2476 22.5H29.0282C28.4651 22.5 27.9719 22.8763 27.8226 23.4194C27.4294 24.8531 26.6457 26.1494 25.5569 27.1675C25.1326 27.5644 25.0376 28.2019 25.3282 28.705L26.9257 31.4725C27.1101 31.7919 27.4257 32.0137 27.7888 32.0781C27.8619 32.0912 27.9351 32.0975 28.0082 32.0975C28.2982 32.0975 28.5819 31.9969 28.8082 31.8081C31.2013 29.8156 32.8582 27.0412 33.4732 23.9975C33.5476 23.63 33.4526 23.2488 33.2157 22.9581C32.9776 22.6681 32.6226 22.5 32.2476 22.5Z" fill="#231F20"/>
<path d="M12.5188 11.52C12.3275 11.1894 11.9957 10.9638 11.6182 10.9081C11.5575 10.8994 11.4969 10.895 11.4363 10.895C11.12 10.895 10.8125 11.015 10.5794 11.235C8.49879 13.195 7.09816 15.7075 6.52941 18.5006C6.45441 18.8681 6.54879 19.2506 6.78629 19.5413C7.02316 19.8313 7.37879 20 7.75379 20H10.9732C11.535 20 12.0275 19.625 12.1775 19.0838C12.5138 17.8694 13.14 16.7331 13.9869 15.7975C14.3513 15.395 14.4144 14.8038 14.1432 14.3331L12.5188 11.52Z" fill="#231F20"/>
</g>
<path d="M12.1782 22.1662C12.0282 21.625 11.535 21.25 10.9738 21.25H7.75441C7.37941 21.25 7.02379 21.4188 6.78629 21.7094C6.54879 22 6.45441 22.3819 6.52941 22.75C7.09879 25.5431 8.49941 28.0556 10.5794 30.0156C10.8132 30.2356 11.12 30.3556 11.4363 30.3556C11.4969 30.3556 11.5575 30.3513 11.6182 30.3425C11.9963 30.2869 12.3282 30.0619 12.5188 29.7306L14.1438 26.9163C14.415 26.4463 14.3519 25.8544 13.9875 25.4519C13.1407 24.5162 12.5144 23.38 12.1782 22.1662Z" fill="#77B3D4"/>
<path d="M23.0644 28.5352C22.8382 28.1427 22.4219 27.9102 21.9819 27.9102C21.8932 27.9102 21.8038 27.9195 21.715 27.9389C21.1494 28.0627 20.5719 28.1252 20 28.1252C19.2 28.1252 18.41 28.0077 17.6507 27.777C17.53 27.7402 17.4075 27.7227 17.2869 27.7227C16.8494 27.7227 16.4319 27.9533 16.2044 28.3477L14.6088 31.1114C14.4244 31.4308 14.3907 31.8145 14.5157 32.1614C14.6407 32.5083 14.9125 32.7814 15.2582 32.9089C16.77 33.467 18.365 33.7502 20 33.7502C21.3525 33.7502 22.6869 33.5545 23.9663 33.1689C24.3319 33.0589 24.6269 32.7877 24.7675 32.4327C24.9082 32.0777 24.8788 31.6777 24.6882 31.347L23.0644 28.5352Z" fill="#76C2AF"/>
<path d="M27.8226 17.8305C27.9713 18.3736 28.4651 18.7498 29.0282 18.7498H32.2476C32.6226 18.7498 32.9776 18.5817 33.2151 18.2911C33.4526 18.0011 33.5469 17.6198 33.4726 17.2523C32.8576 14.208 31.2007 11.4342 28.8076 9.44172C28.5813 9.25359 28.2976 9.15234 28.0076 9.15234C27.9344 9.15234 27.8613 9.15859 27.7882 9.17172C27.4251 9.23672 27.1094 9.45797 26.9251 9.77734L25.3276 12.5448C25.0369 13.048 25.1319 13.6855 25.5563 14.083C26.6457 15.1011 27.4294 16.3973 27.8226 17.8305Z" fill="#E0995E"/>
<path d="M23.9663 6.83125C22.6869 6.44563 21.3525 6.25 20 6.25C18.365 6.25 16.77 6.53312 15.2582 7.09125C14.9125 7.21875 14.6407 7.4925 14.5157 7.83938C14.3907 8.18563 14.4244 8.57 14.6088 8.88937L16.2044 11.6531C16.4319 12.0475 16.8494 12.2781 17.2869 12.2781C17.4082 12.2781 17.53 12.2606 17.6507 12.2238C18.41 11.9925 19.2 11.875 20 11.875C20.5719 11.875 21.1494 11.9375 21.715 12.0613C21.8038 12.0806 21.8938 12.09 21.9819 12.09C22.4219 12.09 22.8375 11.8575 23.0644 11.465L24.6882 8.65313C24.8788 8.3225 24.9082 7.9225 24.7675 7.56813C24.6269 7.21313 24.3319 6.94188 23.9663 6.83125Z" fill="#C75C5C"/>
<path d="M32.2476 21.25H29.0282C28.4651 21.25 27.9719 21.6263 27.8226 22.1694C27.4294 23.6031 26.6457 24.8994 25.5569 25.9175C25.1326 26.3144 25.0376 26.9519 25.3282 27.455L26.9257 30.2225C27.1101 30.5419 27.4257 30.7637 27.7888 30.8281C27.8619 30.8412 27.9351 30.8475 28.0082 30.8475C28.2982 30.8475 28.5819 30.7469 28.8082 30.5581C31.2013 28.5656 32.8582 25.7912 33.4732 22.7475C33.5476 22.38 33.4526 21.9988 33.2157 21.7081C32.9776 21.4181 32.6226 21.25 32.2476 21.25Z" fill="#F5CF87"/>
<path d="M12.5188 10.27C12.3275 9.93939 11.9957 9.71377 11.6182 9.65814C11.5575 9.64939 11.4969 9.64502 11.4363 9.64502C11.12 9.64502 10.8125 9.76502 10.5794 9.98502C8.49879 11.945 7.09816 14.4575 6.52941 17.2506C6.45441 17.6181 6.54879 18.0006 6.78629 18.2913C7.02316 18.5813 7.37879 18.75 7.75379 18.75H10.9732C11.535 18.75 12.0275 18.375 12.1775 17.8338C12.5138 16.6194 13.14 15.4831 13.9869 14.5475C14.3513 14.145 14.4144 13.5538 14.1432 13.0831L12.5188 10.27Z" fill="#4F5D73"/>
</svg>
