<svg width="196" height="25" viewBox="0 0 196 25" fill="none" xmlns="http://www.w3.org/2000/svg">
<path d="M4.4 12.864V10.496H8.016C8.63467 10.496 9.15733 10.4 9.584 10.208C10.032 10.016 10.3733 9.74933 10.608 9.408C10.8427 9.04533 10.96 8.608 10.96 8.096C10.96 7.328 10.704 6.752 10.192 6.368C9.68 5.984 8.95467 5.792 8.016 5.792H5.776V19.808H8.528C9.232 19.808 9.86133 19.7227 10.416 19.552C10.9707 19.36 11.408 19.0613 11.728 18.656C12.0693 18.2293 12.24 17.6533 12.24 16.928C12.24 16.4587 12.144 16.0533 11.952 15.712C11.76 15.3707 11.4933 15.0933 11.152 14.88C10.8107 14.6667 10.416 14.5173 9.968 14.432C9.54133 14.3253 9.06133 14.272 8.528 14.272H4.4V11.328H9.136C10.224 11.328 11.28 11.4453 12.304 11.68C13.328 11.9147 14.256 12.2987 15.088 12.832C15.92 13.344 16.5813 14.0053 17.072 14.816C17.584 15.6053 17.84 16.5653 17.84 17.696C17.84 19.1893 17.4773 20.3947 16.752 21.312C16.048 22.2293 15.0453 22.912 13.744 23.36C12.4427 23.7867 10.9067 24 9.136 24H0.368V1.6H8.592C10.1493 1.6 11.5147 1.81333 12.688 2.24C13.8827 2.64533 14.8213 3.27467 15.504 4.128C16.208 4.96 16.56 6.016 16.56 7.296C16.56 8.46933 16.208 9.472 15.504 10.304C14.8213 11.136 13.8827 11.776 12.688 12.224C11.5147 12.6507 10.1493 12.864 8.592 12.864H4.4ZM26.066 12.8C26.066 14.1227 26.322 15.296 26.834 16.32C27.3673 17.3227 28.1033 18.112 29.042 18.688C30.002 19.264 31.122 19.552 32.402 19.552C33.6607 19.552 34.7593 19.264 35.698 18.688C36.658 18.112 37.394 17.3227 37.906 16.32C38.4393 15.296 38.706 14.1227 38.706 12.8C38.706 11.4773 38.45 10.3147 37.938 9.312C37.426 8.288 36.7007 7.488 35.762 6.912C34.8233 6.336 33.7033 6.048 32.402 6.048C31.122 6.048 30.002 6.336 29.042 6.912C28.1033 7.488 27.3673 8.288 26.834 9.312C26.322 10.3147 26.066 11.4773 26.066 12.8ZM20.338 12.8C20.338 11.072 20.6367 9.49333 21.234 8.064C21.8527 6.63467 22.706 5.39733 23.794 4.352C24.882 3.30667 26.162 2.50667 27.634 1.952C29.106 1.376 30.6953 1.088 32.402 1.088C34.13 1.088 35.7193 1.376 37.17 1.952C38.642 2.50667 39.922 3.30667 41.01 4.352C42.098 5.39733 42.9407 6.63467 43.538 8.064C44.1353 9.49333 44.434 11.072 44.434 12.8C44.434 14.528 44.1353 16.1173 43.538 17.568C42.962 19.0187 42.13 20.2773 41.042 21.344C39.9753 22.4107 38.706 23.2427 37.234 23.84C35.762 24.416 34.1513 24.704 32.402 24.704C30.6313 24.704 29.01 24.416 27.538 23.84C26.066 23.2427 24.786 22.4107 23.698 21.344C22.6313 20.2773 21.7993 19.0187 21.202 17.568C20.626 16.1173 20.338 14.528 20.338 12.8ZM59.0033 15.904V11.744H70.3313C70.4379 13.536 70.2566 15.2107 69.7873 16.768C69.3179 18.3253 68.5926 19.7013 67.6113 20.896C66.6299 22.0907 65.4033 23.0293 63.9313 23.712C62.4593 24.3733 60.7739 24.704 58.8753 24.704C57.0833 24.704 55.4406 24.4267 53.9473 23.872C52.4539 23.296 51.1633 22.4853 50.0753 21.44C48.9873 20.3733 48.1339 19.1147 47.5153 17.664C46.9179 16.192 46.6193 14.5707 46.6193 12.8C46.6193 11.0293 46.9286 9.42933 47.5473 8C48.1659 6.54933 49.0406 5.312 50.1713 4.288C51.3019 3.264 52.6246 2.47467 54.1393 1.92C55.6539 1.36533 57.2966 1.088 59.0673 1.088C60.6459 1.088 62.0646 1.312 63.3233 1.76C64.5819 2.208 65.6913 2.83733 66.6513 3.648C67.6326 4.43733 68.4753 5.35467 69.1793 6.4L64.3793 8.896C63.8673 8 63.1739 7.264 62.2993 6.688C61.4459 6.09067 60.3686 5.792 59.0673 5.792C57.8299 5.792 56.6886 6.06933 55.6433 6.624C54.6193 7.17867 53.7979 7.97867 53.1793 9.024C52.5819 10.048 52.2833 11.3067 52.2833 12.8C52.2833 14.272 52.5713 15.552 53.1473 16.64C53.7446 17.7067 54.5446 18.5387 55.5473 19.136C56.5713 19.712 57.7446 20 59.0673 20C59.8779 20 60.6139 19.904 61.2753 19.712C61.9366 19.4987 62.5019 19.2107 62.9713 18.848C63.4406 18.464 63.8353 18.0267 64.1553 17.536C64.4966 17.024 64.7633 16.48 64.9553 15.904H59.0033ZM77.5458 24V19.552H88.8418V24H77.5458ZM77.5458 6.048V1.6H88.8418V6.048H77.5458ZM77.5458 14.4V10.048H88.2018V14.4H77.5458ZM73.9618 1.6H79.1458V24H73.9618V1.6ZM99.003 12.576L97.659 24H91.963L95.579 0.48L105.115 14.144L114.683 0.48L118.299 24H112.603L111.259 12.576L105.115 21.92L99.003 12.576ZM125.263 19.68L125.647 15.552H136.751L137.103 19.68H125.263ZM131.119 9.824L127.983 17.056L128.239 18.24L125.455 24H119.343L131.119 0.191999L142.927 24H136.783L134.095 18.464L134.287 17.088L131.119 9.824ZM146.019 21.824C146.019 21.0133 146.307 20.32 146.883 19.744C147.459 19.168 148.174 18.88 149.027 18.88C149.923 18.88 150.648 19.168 151.203 19.744C151.758 20.32 152.035 21.0133 152.035 21.824C152.035 22.6347 151.758 23.328 151.203 23.904C150.648 24.48 149.923 24.768 149.027 24.768C148.174 24.768 147.459 24.48 146.883 23.904C146.307 23.328 146.019 22.6347 146.019 21.824ZM162.156 13.856H167.756L174.764 24H168.428L162.156 13.856ZM156.556 1.6H161.964V24H156.556V1.6ZM159.948 6.176V1.6H164.716C166.636 1.6 168.236 1.90933 169.516 2.528C170.796 3.14667 171.766 4.01067 172.428 5.12C173.089 6.208 173.42 7.47733 173.42 8.928C173.42 10.3573 173.089 11.6267 172.428 12.736C171.766 13.824 170.796 14.6773 169.516 15.296C168.236 15.9147 166.636 16.224 164.716 16.224H159.948V12.032H164.332C165.057 12.032 165.676 11.9253 166.188 11.712C166.721 11.4773 167.126 11.1467 167.404 10.72C167.681 10.272 167.82 9.73867 167.82 9.12C167.82 8.50133 167.681 7.97867 167.404 7.552C167.126 7.104 166.721 6.76267 166.188 6.528C165.676 6.29333 165.057 6.176 164.332 6.176H159.948ZM177.114 1.6H182.522V16.256C182.522 17.3867 182.821 18.304 183.418 19.008C184.016 19.712 184.912 20.064 186.106 20.064C187.322 20.064 188.229 19.712 188.826 19.008C189.424 18.304 189.722 17.3867 189.722 16.256V1.6H195.13V16.64C195.13 18.048 194.896 19.2747 194.426 20.32C193.978 21.3653 193.338 22.2293 192.506 22.912C191.696 23.5733 190.736 24.0747 189.626 24.416C188.538 24.7573 187.365 24.928 186.106 24.928C184.848 24.928 183.674 24.7573 182.586 24.416C181.498 24.0747 180.538 23.5733 179.706 22.912C178.896 22.2293 178.256 21.3653 177.786 20.32C177.338 19.2747 177.114 18.048 177.114 16.64V1.6Z" fill="black"/>
</svg>
